<svg xmlns="http://www.w3.org/2000/svg" width="200" height="200" viewBox="0 0 200 200">
  <defs>
    <linearGradient id="bg-3775" x1="0%" y1="0%" x2="100%" y2="100%">
      <stop offset="0%" stop-color="#ECFDF5"/>
      <stop offset="50%" stop-color="white"/>
      <stop offset="100%" stop-color="#ECFDF5"/>
    </linearGradient>
    <linearGradient id="accent-3775" x1="0%" y1="0%" x2="100%" y2="100%">
      <stop offset="0%" stop-color="#065F46"/>
      <stop offset="100%" stop-color="#34D399"/>
    </linearGradient>
  </defs>
  <rect width="200" height="200" fill="url(#bg-3775)" rx="12"/>
  <!-- Decorative pattern -->
  <g transform="translate(26, 26) rotate(0, 100, 100)" opacity="0.06">
    <circle cx="30" cy="30" r="25" fill="#065F46"/>
    <circle cx="130" cy="30" r="20" fill="#34D399"/>
    <circle cx="170" cy="130" r="30" fill="#065F46"/>
    <circle cx="30" cy="170" r="15" fill="#34D399"/>
  </g>
  <!-- Fashion icon -->
  <g transform="translate(20, 15) scale(0.85)">
    <path d="M50 55 L110 55 L115 140 L45 140 Z" fill="#34D399" opacity="0.8"/><path d="M50 55 L30 90 L45 95 L50 75" fill="#34D399" opacity="0.6"/><path d="M110 55 L130 90 L115 95 L110 75" fill="#34D399" opacity="0.6"/><ellipse cx="80" cy="55" rx="15" ry="8" fill="#065F46" opacity="0.3"/>
  </g>
  <!-- Product initial -->
  <text x="170" y="35" font-family="Georgia, serif" font-size="28" font-weight="bold" fill="#065F46" opacity="0.25" text-anchor="end">C</text>
  <!-- Product name -->
  <text x="100" y="180" font-family="Georgia, serif" font-size="10" fill="#065F46" opacity="0.6" text-anchor="middle">
    Chunky Knit Scarf
  </text>
</svg>