<svg xmlns="http://www.w3.org/2000/svg" width="200" height="200" viewBox="0 0 200 200">
  <defs>
    <linearGradient id="bg-9693" x1="0%" y1="0%" x2="100%" y2="100%">
      <stop offset="0%" stop-color="#FEE2E2"/>
      <stop offset="50%" stop-color="white"/>
      <stop offset="100%" stop-color="#FEE2E2"/>
    </linearGradient>
    <linearGradient id="accent-9693" x1="0%" y1="0%" x2="100%" y2="100%">
      <stop offset="0%" stop-color="#B91C1C"/>
      <stop offset="100%" stop-color="#FCA5A5"/>
    </linearGradient>
  </defs>
  <rect width="200" height="200" fill="url(#bg-9693)" rx="12"/>
  <!-- Decorative pattern -->
  <g transform="translate(38, 38) rotate(13, 100, 100)" opacity="0.06">
    <circle cx="30" cy="30" r="25" fill="#B91C1C"/>
    <circle cx="130" cy="30" r="20" fill="#FCA5A5"/>
    <circle cx="170" cy="130" r="30" fill="#B91C1C"/>
    <circle cx="30" cy="170" r="15" fill="#FCA5A5"/>
  </g>
  <!-- Fashion icon -->
  <g transform="translate(20, 15) scale(0.85)">
    <path d="M45 45 L115 45 L120 155 L85 155 L80 100 L75 155 L40 155 Z" fill="#FCA5A5" opacity="0.8"/><line x1="80" y1="45" x2="80" y2="100" stroke="#B91C1C" stroke-width="2"/><path d="M45 45 L25 90 L40 92" fill="#FCA5A5" opacity="0.6"/><path d="M115 45 L135 90 L120 92" fill="#FCA5A5" opacity="0.6"/>
  </g>
  <!-- Product initial -->
  <text x="170" y="35" font-family="Georgia, serif" font-size="28" font-weight="bold" fill="#B91C1C" opacity="0.25" text-anchor="end">C</text>
  <!-- Product name -->
  <text x="100" y="180" font-family="Georgia, serif" font-size="10" fill="#B91C1C" opacity="0.6" text-anchor="middle">
    Classic Wool-Blend Coat
  </text>
</svg>