<svg xmlns="http://www.w3.org/2000/svg" width="200" height="200" viewBox="0 0 200 200">
  <defs>
    <linearGradient id="bg-7213" x1="0%" y1="0%" x2="100%" y2="100%">
      <stop offset="0%" stop-color="#FEE2E2"/>
      <stop offset="50%" stop-color="white"/>
      <stop offset="100%" stop-color="#FEE2E2"/>
    </linearGradient>
    <linearGradient id="accent-7213" x1="0%" y1="0%" x2="100%" y2="100%">
      <stop offset="0%" stop-color="#B91C1C"/>
      <stop offset="100%" stop-color="#FCA5A5"/>
    </linearGradient>
  </defs>
  <rect width="200" height="200" fill="url(#bg-7213)" rx="12"/>
  <!-- Decorative pattern -->
  <g transform="translate(15, 15) rotate(13, 100, 100)" opacity="0.06">
    <circle cx="30" cy="30" r="25" fill="#B91C1C"/>
    <circle cx="130" cy="30" r="20" fill="#FCA5A5"/>
    <circle cx="170" cy="130" r="30" fill="#B91C1C"/>
    <circle cx="30" cy="170" r="15" fill="#FCA5A5"/>
  </g>
  <!-- Fashion icon -->
  <g transform="translate(20, 15) scale(0.85)">
    <path d="M50 55 L110 55 L115 140 L45 140 Z" fill="#FCA5A5" opacity="0.8"/><path d="M50 55 L30 90 L45 95 L50 75" fill="#FCA5A5" opacity="0.6"/><path d="M110 55 L130 90 L115 95 L110 75" fill="#FCA5A5" opacity="0.6"/><ellipse cx="80" cy="55" rx="15" ry="8" fill="#B91C1C" opacity="0.3"/>
  </g>
  <!-- Product initial -->
  <text x="170" y="35" font-family="Georgia, serif" font-size="28" font-weight="bold" fill="#B91C1C" opacity="0.25" text-anchor="end">C</text>
  <!-- Product name -->
  <text x="100" y="180" font-family="Georgia, serif" font-size="10" fill="#B91C1C" opacity="0.6" text-anchor="middle">
    Color-Block Knit Sweater
  </text>
</svg>