<svg xmlns="http://www.w3.org/2000/svg" width="200" height="200" viewBox="0 0 200 200">
  <defs>
    <linearGradient id="bg-8279" x1="0%" y1="0%" x2="100%" y2="100%">
      <stop offset="0%" stop-color="#FAF5FF"/>
      <stop offset="50%" stop-color="white"/>
      <stop offset="100%" stop-color="#FAF5FF"/>
    </linearGradient>
    <linearGradient id="accent-8279" x1="0%" y1="0%" x2="100%" y2="100%">
      <stop offset="0%" stop-color="#6B21A8"/>
      <stop offset="100%" stop-color="#D8B4FE"/>
    </linearGradient>
  </defs>
  <rect width="200" height="200" fill="url(#bg-8279)" rx="12"/>
  <!-- Decorative pattern -->
  <g transform="translate(49, 49) rotate(4, 100, 100)" opacity="0.06">
    <circle cx="30" cy="30" r="25" fill="#6B21A8"/>
    <circle cx="130" cy="30" r="20" fill="#D8B4FE"/>
    <circle cx="170" cy="130" r="30" fill="#6B21A8"/>
    <circle cx="30" cy="170" r="15" fill="#D8B4FE"/>
  </g>
  <!-- Fashion icon -->
  <g transform="translate(20, 15) scale(0.85)">
    <path d="M45 45 L115 45 L120 155 L85 155 L80 100 L75 155 L40 155 Z" fill="#D8B4FE" opacity="0.8"/><line x1="80" y1="45" x2="80" y2="100" stroke="#6B21A8" stroke-width="2"/><path d="M45 45 L25 90 L40 92" fill="#D8B4FE" opacity="0.6"/><path d="M115 45 L135 90 L120 92" fill="#D8B4FE" opacity="0.6"/>
  </g>
  <!-- Product initial -->
  <text x="170" y="35" font-family="Georgia, serif" font-size="28" font-weight="bold" fill="#6B21A8" opacity="0.25" text-anchor="end">F</text>
  <!-- Product name -->
  <text x="100" y="180" font-family="Georgia, serif" font-size="10" fill="#6B21A8" opacity="0.6" text-anchor="middle">
    Faux Fur Coat
  </text>
</svg>