<svg xmlns="http://www.w3.org/2000/svg" width="200" height="200" viewBox="0 0 200 200">
  <defs>
    <linearGradient id="bg-9568" x1="0%" y1="0%" x2="100%" y2="100%">
      <stop offset="0%" stop-color="#FEF9C3"/>
      <stop offset="50%" stop-color="white"/>
      <stop offset="100%" stop-color="#FEF9C3"/>
    </linearGradient>
    <linearGradient id="accent-9568" x1="0%" y1="0%" x2="100%" y2="100%">
      <stop offset="0%" stop-color="#A16207"/>
      <stop offset="100%" stop-color="#FDE047"/>
    </linearGradient>
  </defs>
  <rect width="200" height="200" fill="url(#bg-9568)" rx="12"/>
  <!-- Decorative pattern -->
  <g transform="translate(46, 46) rotate(3, 100, 100)" opacity="0.06">
    <circle cx="30" cy="30" r="25" fill="#A16207"/>
    <circle cx="130" cy="30" r="20" fill="#FDE047"/>
    <circle cx="170" cy="130" r="30" fill="#A16207"/>
    <circle cx="30" cy="170" r="15" fill="#FDE047"/>
  </g>
  <!-- Fashion icon -->
  <g transform="translate(20, 15) scale(0.85)">
    <path d="M50 55 L110 55 L115 140 L45 140 Z" fill="#FDE047" opacity="0.8"/><path d="M50 55 L30 90 L45 95 L50 75" fill="#FDE047" opacity="0.6"/><path d="M110 55 L130 90 L115 95 L110 75" fill="#FDE047" opacity="0.6"/><ellipse cx="80" cy="55" rx="15" ry="8" fill="#A16207" opacity="0.3"/>
  </g>
  <!-- Product initial -->
  <text x="170" y="35" font-family="Georgia, serif" font-size="28" font-weight="bold" fill="#A16207" opacity="0.25" text-anchor="end">F</text>
  <!-- Product name -->
  <text x="100" y="180" font-family="Georgia, serif" font-size="10" fill="#A16207" opacity="0.6" text-anchor="middle">
    Fleece Pullover Hoodie
  </text>
</svg>